# xmcd CD database file
#
# Track frame offsets:
#	150
#	17405
#	32447
#	60400
#	81465
#	103170
#	115562
#	142412
#	169470
#	186432
#	205075
#	240480
#	259282
#	287467
#	306570
#	328727
#
# Disc length: 4610 seconds
#
# Revision: 3
# Processed by: cddbd v1.5.1PL2 Copyright (c) Steve Scherf et al.
# Submitted via: CDex 1.50
#
DISCID=ea120010
DTITLE=Various Artist - No Free rides
DYEAR=1900
DGENRE=Blues
TTITLE0=Phillip Walker and Otis Grand - Dressin Trashy
TTITLE1=Tutu Jones - Stubborn Woman
TTITLE2=The Butler Twins - 1-900
TTITLE3=Buddy Guy - Girl you're nice and clean
TTITLE4=Larry Garner - Thought I had the Blues
TTITLE5=Charlie Sayles - Down and Out
TTITLE6=Guitar Short and Otis Grand - Hot and Saucy, Short and Grand
TTITLE7=Byther Smith - I was coming home
TTITLE8=Mojo Buford - Big Leg Woman
TTITLE9=U.P. Wilson - Tell me baby
TTITLE10=Lefty Dizz - Where the hell where you when I got home
TTITLE11=Joe Houston and Otis Grand - Camilla's  Hop
TTITLE12=Larry Garner - No Free rides
TTITLE13=Johnny Littlejohn - You don't  want me
TTITLE14=Carey and Lurrie Bell - Going back to Louisiana
TTITLE15=Fernest Arceneaux - Back to Louisiana
EXTD=0\n\n\nsubmitted by Stamppot
EXTT0=
EXTT1=
EXTT2=
EXTT3=
EXTT4=
EXTT5=
EXTT6=
EXTT7=
EXTT8=
EXTT9=
EXTT10=
EXTT11=
EXTT12=
EXTT13=
EXTT14=
EXTT15=
PLAYORDER=
